<svg width="1728" height="1117" viewBox="0 0 1728 1117" fill="none" xmlns="http://www.w3.org/2000/svg">
<g clip-path="url(#clip0_192_159)">
<rect width="1728" height="1117" fill="#F1CFBB"/>
<path d="M-1.94727 1023.86C99.1559 969.475 236.825 955.311 391.452 961.261C546.126 967.213 718.097 993.312 887.96 1019.71C1057.88 1046.13 1225.68 1072.84 1372.2 1080.09C1518.8 1087.34 1643.66 1075.08 1727.96 1023.91L1730.04 1027.33C1644.64 1079.16 1518.71 1091.34 1372 1084.08C1225.22 1076.82 1057.19 1050.07 887.345 1023.67C717.44 997.258 545.701 971.199 391.299 965.258C236.85 959.315 100.077 973.521 -0.0527344 1027.38L-1.94727 1023.86Z" fill="#FEF4EA"/>
<path d="M-0.954102 974.383C100.093 919.553 237.687 905.273 392.227 911.272C546.812 917.272 718.684 943.586 888.448 970.204C1058.27 996.832 1225.97 1023.76 1372.41 1031.07C1518.93 1038.39 1643.71 1026.02 1727.96 974.435L1730.04 977.846C1644.69 1030.11 1518.83 1042.39 1372.21 1035.07C1225.51 1027.75 1057.58 1000.77 887.829 974.155C718.022 947.53 546.383 921.259 392.071 915.269C237.713 909.277 101.023 923.6 0.954102 977.899L-0.954102 974.383Z" fill="#DE7D7C"/>
<path d="M-0.948242 925.858C100.097 871.475 237.688 857.311 392.226 863.261C546.81 869.213 718.682 895.312 888.446 921.714C1058.27 948.125 1225.97 974.838 1372.41 982.088C1518.93 989.342 1643.71 977.076 1727.96 925.909L1730.04 929.328C1644.69 981.165 1518.83 993.342 1372.21 986.083C1225.51 978.821 1057.58 952.067 887.831 925.667C718.024 899.258 546.384 873.199 392.071 867.258C237.712 861.315 101.019 875.522 0.948242 929.38L-0.948242 925.858Z" fill="#5B0C21"/>
</g>
<defs>
<clipPath id="clip0_192_159">
<rect width="1728" height="1117" fill="white"/>
</clipPath>
</defs>
</svg>
