<svg width="1200" height="800" viewBox="0 0 1200 800" fill="none" xmlns="http://www.w3.org/2000/svg">
<g clip-path="url(#clip0_402_227)">
<rect width="1200" height="800" fill="#F1CFBB"/>
</g>
<path d="M1 697.106C70.9906 658.693 166.295 648.688 273.338 652.891C380.414 657.095 499.465 675.53 617.055 694.179C734.686 712.834 850.846 731.703 952.281 736.824C1053.77 741.947 1140.21 733.284 1198.56 697.142L1200 699.557C1140.88 736.171 1053.7 744.773 952.144 739.646C850.531 734.516 734.209 715.618 616.629 696.971C499.009 678.317 380.12 659.911 273.232 655.714C166.312 651.516 71.6281 661.551 2.31153 699.594L1 697.106Z" fill="#FEF4EA"/>
<path d="M1 664.612C70.9919 626.619 166.298 616.724 273.342 620.881C380.418 625.039 499.467 643.272 617.057 661.716C734.687 680.167 850.845 698.828 952.279 703.892C1053.77 708.959 1140.2 700.391 1198.55 664.647L1200 667.011C1140.88 703.224 1053.7 711.731 952.141 706.66C850.528 701.587 734.206 682.896 616.628 664.454C499.009 646.005 380.12 627.801 273.234 623.651C166.316 619.499 71.6358 629.423 2.32174 667.048L1 664.612Z" fill="#DE7D7C"/>
<path d="M1 632.106C70.9908 593.693 166.296 583.688 273.339 587.891C380.415 592.095 499.465 610.53 617.056 629.179C734.686 647.834 850.846 666.703 952.281 671.824C1053.77 676.947 1140.21 668.284 1198.56 632.142L1200 634.557C1140.88 671.171 1053.7 679.773 952.144 674.645C850.532 669.516 734.209 650.619 616.63 631.971C499.01 613.317 380.12 594.911 273.232 590.714C166.313 586.516 71.6297 596.551 2.31364 634.594L1 632.106Z" fill="#5B0C21"/>
<defs>
<clipPath id="clip0_402_227">
<rect width="1200" height="800" fill="white"/>
</clipPath>
</defs>
</svg>
