<svg width="147" height="147" viewBox="0 0 147 147" fill="none" xmlns="http://www.w3.org/2000/svg">
<path d="M147 73.5C147 114.093 114.093 147 73.5 147C32.9071 147 0 114.093 0 73.5C0 32.9071 32.9071 0 73.5 0C114.093 0 147 32.9071 147 73.5Z" fill="#5B0C21"/>
<path d="M75.2294 40.032C81.6294 40.032 86.6641 41.44 90.3334 44.256C94.0881 47.072 95.9654 51.0826 95.9654 56.288C95.9654 59.616 95.1121 62.7306 93.4054 65.632C91.7841 68.448 89.6507 71.136 87.0054 73.696C84.3601 76.1707 81.5014 78.6026 78.4294 80.992C75.4427 83.296 72.4987 85.5573 69.5974 87.776C66.7814 89.9947 64.3494 92.256 62.3014 94.56H89.5654C93.0641 94.56 95.2827 94.1333 96.2214 93.28C97.1601 92.3413 97.8001 90.7627 98.1414 88.544H100.573C100.573 93.8347 100.616 97.9307 100.701 100.832C100.787 103.733 100.915 106.336 101.085 108.64C100.317 108.469 98.9094 108.341 96.8614 108.256C94.8134 108.171 92.4667 108.085 89.8214 108C87.1761 108 84.5734 108 82.0134 108H47.1974V105.568C49.6721 103.008 52.6587 100.192 56.1574 97.12C59.7414 93.9626 63.1974 90.5067 66.5254 86.752C69.9387 82.9973 72.7547 78.9013 74.9734 74.464C77.2774 70.0266 78.4294 65.2053 78.4294 60C78.4294 55.392 77.3627 52.0213 75.2294 49.888C73.1814 47.7547 70.1521 46.688 66.1414 46.688C62.6427 46.688 59.4427 47.6266 56.5414 49.504C53.7254 51.296 51.2081 53.9413 48.9894 57.44L46.9414 56.032C48.5627 53.216 50.5681 50.6133 52.9574 48.224C55.4321 45.7493 58.4614 43.7866 62.0454 42.336C65.7147 40.8 70.1094 40.032 75.2294 40.032Z" fill="#F1CFBB"/>
</svg>
