<svg width="148" height="148" viewBox="0 0 148 148" fill="none" xmlns="http://www.w3.org/2000/svg">
<path d="M148 74C148 114.869 114.869 148 74 148C33.1309 148 0 114.869 0 74C0 33.1309 33.1309 0 74 0C114.869 0 148 33.1309 148 74Z" fill="#5B0C21"/>
<path d="M74.624 30C78.6347 30 82.176 30.5973 85.248 31.792C88.4053 32.9867 90.88 34.6933 92.672 36.912C94.464 39.0453 95.36 41.648 95.36 44.72C95.36 47.9627 94.336 50.992 92.288 53.808C90.24 56.624 87.424 59.056 83.84 61.104C80.3413 63.152 76.288 64.7307 71.68 65.84C76.8853 65.7547 81.6213 66.4373 85.888 67.888C90.1547 69.2533 93.568 71.4293 96.128 74.416C98.688 77.3173 99.968 80.9867 99.968 85.424C99.968 89.3493 98.944 92.976 96.896 96.304C94.848 99.5467 92.0747 102.448 88.576 105.008C85.1627 107.653 81.1947 109.872 76.672 111.664C72.1493 113.541 67.4133 114.949 62.464 115.888C57.6 116.827 52.7787 117.296 48 117.296V114.864C52.096 114.693 56.192 113.968 60.288 112.688C64.4693 111.408 68.2667 109.531 71.68 107.056C75.1787 104.581 77.952 101.552 80 97.968C82.1333 94.2987 83.2 90.1173 83.2 85.424C83.2 80.3893 82.0053 76.2507 79.616 73.008C77.2267 69.7653 73.9413 67.9733 69.76 67.632C68.48 68.144 67.2853 68.6133 66.176 69.04C65.152 69.4667 64.1707 69.68 63.232 69.68C62.5493 69.68 61.9947 69.552 61.568 69.296C61.2267 68.9547 61.056 68.4427 61.056 67.76C61.056 66.9067 61.44 66.2667 62.208 65.84C62.976 65.4133 63.872 65.2 64.896 65.2C65.5787 65.2 66.2613 65.2427 66.944 65.328C67.712 65.4133 68.5227 65.4987 69.376 65.584C72.96 63.024 75.4773 60.2507 76.928 57.264C78.464 54.192 79.232 51.12 79.232 48.048C79.232 44.1227 78.208 41.264 76.16 39.472C74.112 37.5947 71.3813 36.656 67.968 36.656C64.5547 36.656 61.3547 37.552 58.368 39.344C55.4667 41.0507 53.0347 43.6533 51.072 47.152L48.896 46C50.3467 43.184 52.1387 40.5813 54.272 38.192C56.4907 35.7173 59.264 33.7547 62.592 32.304C65.92 30.768 69.9307 30 74.624 30Z" fill="#F1CFBB"/>
</svg>
