<svg width="147" height="147" viewBox="0 0 147 147" fill="none" xmlns="http://www.w3.org/2000/svg">
<path d="M147 73.5C147 114.093 114.093 147 73.5 147C32.9071 147 0 114.093 0 73.5C0 32.9071 32.9071 0 73.5 0C114.093 0 147 32.9071 147 73.5Z" fill="#5B0C21"/>
<path d="M83.696 30L84.208 33.328L45.68 84.528L46.704 80.944H87.024C90.5227 80.944 92.7413 80.5173 93.68 79.664C94.6187 78.7253 95.2587 77.1467 95.6 74.928H98.032C98.032 79.792 98.0747 83.5467 98.16 86.192C98.2453 88.752 98.3733 91.0987 98.544 93.232C97.9467 93.0613 96.88 92.976 95.344 92.976C93.808 92.8907 92.016 92.8053 89.968 92.72C87.92 92.6347 85.7867 92.592 83.568 92.592C81.4347 92.592 79.3867 92.592 77.424 92.592H38V89.904L83.696 30ZM85.744 30V116.016H72.432V46.64L83.696 30H85.744Z" fill="#F1CFBB"/>
</svg>
