<svg width="147" height="147" viewBox="0 0 147 147" fill="none" xmlns="http://www.w3.org/2000/svg">
<path d="M147 73.5C147 114.093 114.093 147 73.5 147C32.9071 147 0 114.093 0 73.5C0 32.9071 32.9071 0 73.5 0C114.093 0 147 32.9071 147 73.5Z" fill="#5B0C21"/>
<path d="M92.624 28C92.624 33.376 92.6667 37.6 92.752 40.672C92.8373 43.6587 92.9653 46.304 93.136 48.608C92.4533 48.4373 91.1307 48.3093 89.168 48.224C87.2907 48.1387 85.1147 48.096 82.64 48.096C80.1653 48.0107 77.7333 47.968 75.344 47.968H57.68L55.76 70.752C57.808 69.5573 60.24 68.4907 63.056 67.552C65.9573 66.6133 69.4987 66.144 73.68 66.144C79.2267 66.144 83.792 67.04 87.376 68.832C90.96 70.5387 93.6053 72.928 95.312 76C97.0187 78.9867 97.872 82.3573 97.872 86.112C97.872 91.0613 96.464 95.5413 93.648 99.552C90.832 103.563 87.0773 106.976 82.384 109.792C77.776 112.608 72.656 114.741 67.024 116.192C61.392 117.728 55.7173 118.496 50 118.496V116.192C53.9253 116.192 57.7227 115.552 61.392 114.272C65.0613 112.992 68.3893 111.115 71.376 108.64C74.3627 106.251 76.7093 103.264 78.416 99.68C80.208 96.096 81.104 91.9147 81.104 87.136C81.104 81.76 79.7813 77.6213 77.136 74.72C74.576 71.7333 70.864 70.24 66 70.24C63.6107 70.24 61.5627 70.5387 59.856 71.136C58.2347 71.7333 56.528 72.5013 54.736 73.44L53.2 72.416L56.656 32.992C57.5947 33.1627 58.6613 33.2907 59.856 33.376C61.136 33.4613 62.3733 33.504 63.568 33.504H82.384C85.2853 33.504 87.2053 33.12 88.144 32.352C89.0827 31.4987 89.68 30.048 89.936 28H92.624Z" fill="#F1CFBB"/>
</svg>
