<svg width="1732" height="244" viewBox="0 0 1732 244" fill="none" xmlns="http://www.w3.org/2000/svg">
<g clip-path="url(#clip0_449_267)">
<rect width="1728" height="244" transform="translate(2)" fill="#F1CFBB"/>
</g>
<path d="M0 172.858C101.103 118.475 238.772 104.311 393.399 110.261C548.073 116.213 720.045 142.312 889.907 168.714C1059.83 195.126 1227.62 221.839 1374.15 229.088C1520.75 236.342 1645.61 224.077 1729.91 172.91L1731.99 176.329C1646.59 228.165 1520.66 240.342 1373.95 233.084C1227.17 225.821 1059.14 199.068 889.292 172.668C719.387 146.259 547.648 120.2 393.246 114.258C238.797 108.315 102.024 122.522 1.89453 176.38L0 172.858Z" fill="#FEF4EA"/>
<path d="M0.999023 74.858C102.044 20.4751 239.635 6.31127 394.173 12.2614C548.757 18.2133 720.629 44.3121 890.394 70.7145C1060.22 97.1258 1227.91 123.839 1374.36 131.089C1520.87 138.342 1645.66 126.077 1729.91 74.9098L1731.99 78.3287C1646.64 130.165 1520.78 142.342 1374.16 135.084C1227.46 127.821 1059.53 101.068 889.778 74.6676C719.971 48.2586 548.331 22.1999 394.019 16.2584C239.659 10.3153 102.967 24.522 2.89551 78.3805L0.999023 74.858Z" fill="#5B0C21"/>
<path d="M0.993164 123.384C102.041 68.5536 239.635 54.2733 394.174 60.2722C548.759 66.2729 720.632 92.5861 890.396 119.205C1060.22 145.833 1227.92 172.764 1374.36 180.073C1520.87 187.386 1645.66 175.02 1729.9 123.435L1731.99 126.846C1646.64 179.109 1520.78 191.386 1374.16 184.068C1227.46 176.746 1059.52 149.772 889.776 123.156C719.969 96.5305 548.33 70.2594 394.019 64.2693C239.66 58.2774 102.97 72.6003 2.90137 126.899L0.993164 123.384Z" fill="#DE7D7C"/>
<defs>
<clipPath id="clip0_449_267">
<rect width="1728" height="244" fill="white" transform="translate(2)"/>
</clipPath>
</defs>
</svg>
