<svg width="1728" height="1790" viewBox="0 0 1728 1790" fill="none" xmlns="http://www.w3.org/2000/svg">
<g clip-path="url(#clip0_192_159)">
<rect width="1728" height="1790" fill="#F1CFBB"/>
<path d="M0 1634.86C101.103 1580.48 238.772 1566.31 393.399 1572.26C548.073 1578.21 720.045 1604.31 889.907 1630.71C1059.83 1657.13 1227.62 1683.84 1374.15 1691.09C1520.75 1698.34 1645.61 1686.08 1729.91 1634.91L1731.99 1638.33C1646.59 1690.17 1520.66 1702.34 1373.95 1695.08C1227.17 1687.82 1059.14 1661.07 889.292 1634.67C719.387 1608.26 547.648 1582.2 393.246 1576.26C238.797 1570.32 102.024 1584.52 1.89453 1638.38L0 1634.86Z" fill="#FEF4EA"/>
<path d="M0.993164 1585.38C102.041 1530.55 239.635 1516.27 394.174 1522.27C548.759 1528.27 720.632 1554.59 890.396 1581.2C1060.22 1607.83 1227.92 1634.76 1374.36 1642.07C1520.87 1649.39 1645.66 1637.02 1729.9 1585.44L1731.99 1588.85C1646.64 1641.11 1520.78 1653.39 1374.16 1646.07C1227.46 1638.75 1059.52 1611.77 889.776 1585.16C719.969 1558.53 548.33 1532.26 394.019 1526.27C239.66 1520.28 102.97 1534.6 2.90137 1588.9L0.993164 1585.38Z" fill="#DE7D7C"/>
<path d="M0.999023 1536.86C102.044 1482.48 239.635 1468.31 394.173 1474.26C548.757 1480.21 720.629 1506.31 890.394 1532.71C1060.22 1559.13 1227.91 1585.84 1374.36 1593.09C1520.87 1600.34 1645.66 1588.08 1729.91 1536.91L1731.99 1540.33C1646.64 1592.17 1520.78 1604.34 1374.16 1597.08C1227.46 1589.82 1059.53 1563.07 889.778 1536.67C719.971 1510.26 548.331 1484.2 394.019 1478.26C239.659 1472.32 102.967 1486.52 2.89551 1540.38L0.999023 1536.86Z" fill="#5B0C21"/>
</g>
<defs>
<clipPath id="clip0_192_159">
<rect width="1728" height="1790" fill="white"/>
</clipPath>
</defs>
</svg>
